<svg xmlns="http://www.w3.org/2000/svg" version="1.1" xmlns:xlink="http://www.w3.org/1999/xlink" xmlns:svgjs="http://svgjs.com/svgjs" width="2000" height="1500" preserveAspectRatio="none" viewBox="0 0 2000 1500"><g mask="url(&quot;#SvgjsMask1844&quot;)" fill="none"><rect width="2000" height="1500" x="0" y="0" fill="rgba(201, 12, 15, 1)"></rect><path d="M1467.505844085704 993.464640612698L1731.6013942920622 1192.869804323342 1771.8610027946663 906.4078049488703z" fill="rgba(255, 239, 239, 0.4)" class="triangle-float2"></path><path d="M1035.810406570741 1205.7713535441715L1394.7739789110399 1187.301892384275 1228.2703269368412 920.8403489185309z" fill="rgba(255, 239, 239, 0.4)" class="triangle-float3"></path><path d="M332.61122308629206 1130.8723407687535L249.06329698285248 1560.6891595301943 678.8801157442932 1644.2370856336338 762.4280418477329 1214.420266872193z" fill="rgba(255, 239, 239, 0.4)" class="triangle-float1"></path><path d="M741.7858400597474 484.489585617797L909.6130557124951 215.90989749588607 641.0333675905842 48.082681843138346 473.2061519378365 316.66236996504927z" fill="rgba(255, 239, 239, 0.4)" class="triangle-float3"></path><path d="M969.1586811143775 482.37934448232943L710.5069554066185 825.6217776859937 1312.401114318042 741.0310701900885z" fill="rgba(255, 239, 239, 0.4)" class="triangle-float1"></path><path d="M190.33092290641295 1082.8307494748926L472.1726250632104 1163.6475570827627 552.9894326710804 881.8058549259651 271.14773051428296 800.9890473180951z" fill="rgba(255, 239, 239, 0.4)" class="triangle-float2"></path><path d="M1852.5609191955302 373.25977679471214L2033.8418464816082 141.23077083869435 1595.1578739045426-14.676117112413749z" fill="rgba(255, 239, 239, 0.4)" class="triangle-float2"></path><path d="M1846.9122137981367 990.6800822672101L1727.13467451954 852.8917851864394 1580.3409985376823 1101.4522426447193z" fill="rgba(255, 239, 239, 0.4)" class="triangle-float3"></path><path d="M115.71088668846025 1433.8864715966438L323.87669863467875 1265.3171208255217 155.30734786355666 1057.151308879303-52.85846408266184 1225.7206596504252z" fill="rgba(255, 239, 239, 0.4)" class="triangle-float2"></path><path d="M732.3185435494785 1449.4827274444322L814.6778110723632 1736.703626587897 1204.329526026118 1469.5542757318374z" fill="rgba(255, 239, 239, 0.4)" class="triangle-float3"></path><path d="M319.85453155337956 1545.3559583113058L586.4940413913782 1681.2155744144861 722.3536574945585 1414.5760645764876 455.71414765655993 1278.716448473307z" fill="rgba(255, 239, 239, 0.4)" class="triangle-float1"></path><path d="M1419.0241714249257 1245.1197945445256L1625.8796377100882 980.8763364751952 1336.1417501020876 934.9863633055886z" fill="rgba(255, 239, 239, 0.4)" class="triangle-float2"></path><path d="M719.1041017156504 244.313797277755L767.3969257040593 453.49299928459885 1057.0193167201205 276.46416229856356z" fill="rgba(255, 239, 239, 0.4)" class="triangle-float3"></path><path d="M1764.5298506013778 230.14826221595766L1539.1146951154324 190.40148844319174 1499.3679213426662 415.81664392913723 1724.783076828612 455.5634177019032z" fill="rgba(255, 239, 239, 0.4)" class="triangle-float1"></path><path d="M391.0093030216468 824.3214071149936L744.5627020134342 842.8503556141242 763.0916505125649 489.29695662233684 409.53825152077746 470.7680081232062z" fill="rgba(255, 239, 239, 0.4)" class="triangle-float1"></path><path d="M1263.4236289038922 884.5636261940116L1294.146851484639 1323.9261786519494 1733.5094039425767 1293.2029560712026 1702.7861813618301 853.8404036132649z" fill="rgba(255, 239, 239, 0.4)" class="triangle-float1"></path><path d="M968.0853751423026 1101.0339666198595L1039.1584104477156 1366.282145427797 1304.4065892556532 1295.2091101223841 1233.3335539502402 1029.9609313144465z" fill="rgba(255, 239, 239, 0.4)" class="triangle-float2"></path><path d="M1323.5078435399014 860.2807287613493L1451.5695830503937 526.6684915568998 989.8956063354518 732.218989250857z" fill="rgba(255, 239, 239, 0.4)" class="triangle-float1"></path></g><defs><mask id="SvgjsMask1844"><rect width="2000" height="1500" fill="#ffffff"></rect></mask><style>
            @keyframes float1 {
                0%{transform: translate(0, 0)}
                50%{transform: translate(-10px, 0)}
                100%{transform: translate(0, 0)}
            }

            .triangle-float1 {
                animation: float1 5s infinite;
            }

            @keyframes float2 {
                0%{transform: translate(0, 0)}
                50%{transform: translate(-5px, -5px)}
                100%{transform: translate(0, 0)}
            }

            .triangle-float2 {
                animation: float2 4s infinite;
            }

            @keyframes float3 {
                0%{transform: translate(0, 0)}
                50%{transform: translate(0, -10px)}
                100%{transform: translate(0, 0)}
            }

            .triangle-float3 {
                animation: float3 6s infinite;
            }
        </style></defs></svg>