   <!-- <svg height="24.0px" id="SVGRoot" version="1.1" viewBox="0 0 24.0 24.0" width="24.0px" xmlns="http://www.w3.org/2000/svg" 
                        xmlns:cc="http://creativecommons.org/ns#" xmlns:dc="http://purl.org/dc/elements/1.1/" 
                        xmlns:inkscape="http://www.inkscape.org/namespaces/inkscape" xmlns:rdf="http://www.w3.org/1999/02/22-rdf-syntax-ns#" 
                        xmlns:sodipodi="http://sodipodi.sourceforge.net/DTD/sodipodi-0.dtd" xmlns:svg="http://www.w3.org/2000/svg"><defs id="defs2"/>
                        <g id="layer1"><path fill="currentcolor" d="M 20.029297 3 A 1 1 0 0 0 19.292969 3.2929688 
                            L 17.257812 5.328125 C 15.687708 4.5455983 13.912737 4 12 4 C 8.6666667 
                            4 5.7335794 5.6316279 3.6191406 7.3496094 C 2.5619212 8.2086001 1.7059096 9.0941755 1.09375 9.859375 C 0.78767021 10.241975
                             0.54228306 10.592509 0.35742188 10.916016 C 0.17256067 11.239523 3.7007434e-17 11.458333 0 12 C 0 12.541667 0.17256067 12.760477
                              0.35742188 13.083984 C 0.54228307 13.407491 0.78767021 13.758025 1.09375 14.140625 C 1.7059096 14.905824 2.5619212 15.7914
                               3.6191406 16.650391 C 4.0317573 16.985642 4.4832215 17.313668 4.9550781 17.630859 L 3.2929688 19.292969 A 1 1 0 0 0 
                               3.2929688 20.707031 A 1 1 0 0 0 4.7070312 20.707031 L 6.7421875 18.671875 C 8.3122921 19.454402 10.087263 20 12 20 C 15.333333
                                20 18.266421 18.368372 20.380859 16.650391 C 21.438079 15.7914 22.29409 14.905824 22.90625 14.140625 C 23.21233 13.758025
                                 23.457717 13.407491 23.642578 13.083984 C 23.827439 12.760477 24 12.541667 24 12 C 24 11.458333 23.827439 11.239523 
                                 23.642578 10.916016 C 23.457717 10.592509 23.21233 10.241975 22.90625 9.859375 C 22.29409 9.0941755 21.438079 8.2086001 
                                 20.380859 7.3496094 C 19.968243 7.0143584 19.516778 6.6863317 19.044922 6.3691406 L 20.707031 4.7070312 A 1 1 0 0 0 20.707031
                                  3.2929688 A 1 1 0 0 0 20.029297 3 z M 12 6 C 13.296769 6 14.567291 6.3273006 15.75 6.8359375 L 12.068359 10.517578 A 2 2 0 0 1 12 
                                  10 A 2 2 0 0 1 13.177734 8.1777344 A 4 4 0 0 0 12 8 A 4 4 0 0 0 11.939453 8 A 4 4 0 0 0 8 12 A 4 4 0 0 0 8.5546875 14.03125 L 
                                  6.3984375 16.1875 C 5.8572135 15.84669 5.3474521 15.478716 4.8808594 15.099609 C 3.9380788 14.3336 3.1690904 13.531676 2.65625 
                                  12.890625 C 2.3998298 12.5701 2.2077169 12.287821 2.0957031 12.091797 C 2.0732826 12.052561 2.073845 12.034775 2.0605469 12 C
                                   2.073845 11.965225 2.0732826 11.947439 2.0957031 11.908203 C 2.2077169 11.712179 2.3998298 11.4299 2.65625 11.109375 C 3.1690904 
                                   10.468324 3.9380788 9.6663999 4.8808594 8.9003906 C 6.7664206 7.3683721 9.3333333 6 12 6 z M 17.601562 7.8125 C 18.142787 8.1533101 
                                   18.652548 8.5212841 19.119141 8.9003906 C 20.061921 9.6663999 20.83091 10.468324 21.34375 11.109375 C 21.60017 11.4299 21.792283 
                                   11.712179 21.904297 11.908203 C 21.926717 11.947439 21.926155 11.965225 21.939453 12 C 21.926155 12.034775 21.926717 12.052561 
                                   21.904297 12.091797 C 21.792283 12.287821 21.60017 12.5701 21.34375 12.890625 C 20.83091 13.531676 20.061921 14.3336 19.119141 
                                   15.099609 C 17.233579 16.631628 14.666667 18 12 18 C 10.703231 18 9.4327086 17.672699 8.25 17.164062 L 9.96875 15.445312 A 4 4
                                    0 0 0 12 16 A 4 4 0 0 0 16 12 A 4 4 0 0 0 15.822266 10.824219 A 2 2 0 0 1 14 12 A 2 2 0 0 1 13.482422 11.931641 L 17.601562 7.8125 z " 
                                    id="circle2141" style="stroke:none;stroke-width:2;stroke-linecap:round;stroke-linejoin:round;stroke-miterlimit:4;stroke-dasharray:none"/></g></svg>
                       -->
         <svg >
         <svg height="100%" style="fill-rule:evenodd;clip-rule:evenodd;stroke-linejoin:round;stroke-miterlimit:2;"
          version="1.1" viewBox="0 0 32 32" width="100%" xml:space="preserve" xmlns="http://www.w3.org/2000/svg" 
          xmlns:serif="http://www.serif.com/" xmlns:xlink="http://www.w3.org/1999/xlink"><g transform="matrix(1,0,0,1,-336,-48)">
          <g transform="matrix(1,0,0,1.07692,48,-5.92308)">
          <path d="M316,65.857C316,65.365 315.789,64.892 315.414,64.544C315.039,64.196 314.53,64 314,64C309.48,64 298.52,64 294,64C293.47,64 292.961,64.196
           292.586,64.544C292.211,64.892 292,65.365 292,65.857C292,68.328 292,72.672 292,75.143C292,75.635 292.211,76.108 292.586,76.456C292.961,76.804
            293.47,77 294,77C298.52,77 309.48,77 314,77C314.53,77 315.039,76.804 315.414,76.456C315.789,76.108 316,75.635 316,75.143C316,72.672 316,68.328 
            316,65.857Z" style="fill:rgb(255 244 244);"/></g>
            <path d="M349.374,53.451L344.424,62L342,62C341.204,62 340.441,62.316 339.879,62.879C339.316,63.441 339,64.204 339,65L339,75C339,75.796 339.316,76.559
             339.879,77.121C340.441,77.684 341.204,78 342,78C346.52,78 357.48,78 362,78C362.796,78 363.559,77.684 364.121,77.121C364.684,76.559 365,75.796
              365,75L365,65C365,64.204 364.684,63.441 364.121,62.879C363.559,62.316 362.796,62 362,62L359.131,62L354.618,53.465C354.861,53.032 355,52.532 355,52C355,50.344 
              353.656,49 352,49C350.344,49 349,50.344 349,52C349,52.526 349.136,53.021 349.374,53.451ZM342,64L362,64C362.265,64 362.52,64.105 362.707,64.293C362.895,64.48 
              363,64.735 363,65L363,75C363,75.265 362.895,75.52 362.707,75.707C362.52,75.895 362.265,76 362,76L342,76C341.735,76 341.48,75.895 341.293,75.707C341.105,75.52 
              341,75.265 341,75C341,75 341,65 341,65C341,64.735 341.105,64.48 341.293,64.293C341.48,64.105 341.735,64 342,64ZM352,68.586L349.707,66.293C349.317,65.903 
              348.683,65.903 348.293,66.293C347.903,66.683 347.903,67.317 348.293,67.707L350.586,70L348.293,72.293C347.903,72.683 347.903,73.317
               348.293,73.707C348.683,74.097 349.317,74.097 349.707,73.707L352,71.414L354.293,73.707C354.683,74.097 355.317,74.097 355.707,73.707C356.097,73.317 
               356.097,72.683 355.707,72.293L353.414,70L355.707,67.707C356.097,67.317 356.097,66.683 355.707,66.293C355.317,65.903 354.683,65.903 
               354.293,66.293L352,68.586ZM350.907,54.794L346.735,62L356.869,62L353.064,54.805C352.734,54.931 352.375,55 352,55C351.615,55 351.246,54.927 
               350.907,54.794ZM352,51C352.552,51 353,51.448 353,52C353,52.552 352.552,53 352,53C351.448,53 351,52.552 351,52C351,51.448 351.448,51 352,51Z" 
               style="fill:rgb(255 85 72);"/></g>
         </svg>