<svg xmlns="http://www.w3.org/2000/svg" data-name="Layer 323" viewBox="0 0 50.09 50.43" id="update-time"><path fill="currentcolor" d="M31.14 31.94a1.54 1.54 0 0 1-1-.36l-6.06-5a1.55 1.55 0 0 1-.56-1.19v-8.26a1.55 1.55 0 1 1 3.1 0v7.48l5.49 4.56a1.54 1.54 0 0 1-1 2.73Z"></path><path fill="#38b000" d="M42.38 11.07h-.11l-8-.6a1.544 1.544 0 1 1 .23-3.08l6.2.46-.47-6.19a1.55 1.55 0 1 1 3.09-.23l.59 8a1.54 1.54 0 0 1-1.54 1.66Z"></path><path fill="#9ef01a" d="M47.88 32.54a1.64 1.64 0 0 1-.37 0 1.54 1.54 0 0 1-1.13-1.87 20.55 20.55 0 0 0 .61-5 1.55 1.55 0 1 1 3.09 0 23.61 23.61 0 0 1-.7 5.71 1.54 1.54 0 0 1-1.5 1.16Z"></path><path fill="#70e000" d="M35.45 47.99a1.55 1.55 0 0 1-.68-2.93 22 22 0 0 0 5.77-4.15 24 24 0 0 0 1.65-1.85A1.55 1.55 0 0 1 44.6 41a24.68 24.68 0 0 1-1.87 2.09 25.16 25.16 0 0 1-6.59 4.74 1.55 1.55 0 0 1-.69.16Z"></path><path fill="#38b000" 
d="M24.99 50.43A25 25 0 1 1 42.73 7.69a1.55 1.55 0 1 1-2.19 2.18A21.95 21.95 0 1 0 27.43 47.2a1.55 1.55 0 1 1 .34 3.08 26 26 0 0 1-2.78.15Z"></path></svg>