<svg xmlns="http://www.w3.org/2000/svg" viewBox="0 0 788.84 561.09"><defs><style>.cls-1{fill:#ed1c25;}</style></defs><title>Asset 3</title><g id="Layer_2" data-name="Layer 2"><g id="Layer_1-2" data-name="Layer 1"><path class="cls-1" d="M788.81,278.89q0,105.95,0,211.91c0,4.05,0,8.11-.3,12.15-1.92,28.28-17,46.42-44.38,53.31a77.35,77.35,0,0,1-15,2.6c-29,1.48-58.21,2.88-87.08-.34-42.81-4.77-76.64-28.27-107.88-56Q472.05,447.31,410,392.08c-14.73-13.06-24.1-12.7-38.7,1-40.44,37.85-80.53,76.09-121.47,113.41-27,24.62-57.44,44.76-94.27,50.54a343.85,343.85,0,0,1-106,0C17,551.92.12,530.53.07,497.72q-.19-149,0-298.09a78.24,78.24,0,0,1,3-21c8.78-31.6,31.38-44.25,62.67-34.8Q172.2,176,278.65,208.5c1.61.49,3.2,1.07,4.84,1.47,14.41,3.53,16.32,9,5.5,19.14C268.05,248.75,246.71,268,225.18,287c-12.24,10.8-25.59,15.15-41.61,6.43-10.3-5.62-21.75-9.14-32.72-13.52-14.49-5.79-27.57,1.89-27.78,17.36-.54,39.19-.42,78.4-.35,117.59,0,8.42,5.76,12.93,13.17,14.6,11.86,2.66,22.69.21,31.94-8.3q91-83.67,182.14-167.22c27-24.74,55.94-24.74,83-.52q91.39,81.76,182.82,163.5c8,7.21,16.79,12.35,27.75,13.26,14.39,1.19,22.74-6,22.77-20.3q.16-86.68-.05-173.38A40.11,40.11,0,0,0,664,223.58c-4.18-12-14.44-15.21-24.85-8-16.91,11.78-33.65,23.8-50.51,35.66-14.75,10.38-20.52,9.88-33.59-2.28q-27.83-25.87-55.81-51.56c-15-13.84-14.91-21.9,1.85-33.65Q611.87,86.13,723,8.91C748.4-8.72,774.27.58,783.92,30c3.83,11.67,4.93,23.73,4.92,36Q788.75,172.43,788.81,278.89Z"/></g></g></svg>