<?xml version="1.0" encoding="UTF-8"?><svg id="Layer_2" xmlns="http://www.w3.org/2000/svg" viewBox="0 0 810 262.12"><defs><style>.cls-1{fill:#ec1c24;}.cls-2{fill:none;}</style></defs><g id="Layer_1-2"><rect class="cls-2" width="810" height="262.12"/><g><rect class="cls-1" x="16.65" y="234.8" width="117.83" height="2.56"/><rect class="cls-1" x="672.67" y="234.8" width="117.85" height="2.56"/><polygon class="cls-1" points="178.19 238.5 166.7 238.5 166.7 245.95 179.53 245.95 179.53 251.76 159.61 251.76 159.61 220.41 178.88 220.41 178.88 226.23 166.7 226.23 166.7 232.74 178.19 232.74 178.19 238.5"/><path class="cls-1" d="m184.35,220.41h6.99v13.86h.14c.7-1.21,1.44-2.33,2.13-3.44l7.09-10.42h8.65l-10.32,13.35,10.88,18h-8.24l-7.63-13.53-2.7,3.3v10.23h-6.99v-31.35Z"/><path class="cls-1" d="m231.51,220.83c2.17-.37,5.23-.65,9.54-.65s7.46.84,9.55,2.51c1.99,1.59,3.33,4.2,3.33,7.26s-1.01,5.68-2.87,7.45c-2.41,2.28-5.97,3.29-10.14,3.29-.94,0-1.77-.04-2.42-.14v11.21h-6.99v-30.93Zm6.99,14.23c.61.15,1.35.19,2.36.19,3.75,0,6.07-1.91,6.07-5.11,0-2.88-1.99-4.61-5.51-4.61-1.45,0-2.41.15-2.93.27v9.26Z"/><polygon class="cls-1" points="277 238.5 265.52 238.5 265.52 245.95 278.36 245.95 278.36 251.76 258.43 251.76 258.43 220.41 277.7 220.41 277.7 226.23 265.52 226.23 265.52 232.74 277 232.74 277 238.5"/><path class="cls-1" d="m283.16,220.83c2.27-.38,5.66-.65,9.41-.65,4.63,0,7.88.7,10.1,2.47,1.85,1.49,2.88,3.67,2.88,6.54,0,4.01-2.84,6.75-5.51,7.73v.15c2.18.88,3.37,2.97,4.16,5.85.98,3.54,1.95,7.63,2.56,8.84h-7.24c-.51-.88-1.24-3.45-2.18-7.3-.82-3.91-2.17-4.97-5.04-5.02h-2.13v12.32h-7v-30.93Zm7,13.48h2.78c3.52,0,5.6-1.77,5.6-4.51,0-2.89-1.95-4.32-5.18-4.38-1.73,0-2.7.15-3.2.24v8.64Z"/><polygon class="cls-1" points="310.64 220.41 329.73 220.41 329.73 226.23 317.73 226.23 317.73 233.39 328.92 233.39 328.92 239.16 317.73 239.16 317.73 251.76 310.64 251.76 310.64 220.41"/><polygon class="cls-1" points="353.63 238.5 342.14 238.5 342.14 245.95 354.97 245.95 354.97 251.76 335.05 251.76 335.05 220.41 354.33 220.41 354.33 226.23 342.14 226.23 342.14 232.74 353.63 232.74 353.63 238.5"/><path class="cls-1" d="m382.72,250.88c-1.3.64-4.21,1.34-8.01,1.34-10.8,0-16.36-6.74-16.36-15.68,0-10.7,7.6-16.64,17.06-16.64,3.63,0,6.42.74,7.68,1.39l-1.43,5.63c-1.44-.6-3.43-1.16-5.94-1.16-5.6,0-9.96,3.39-9.96,10.37,0,6.28,3.72,10.23,10,10.23,2.14,0,4.49-.47,5.89-1.02l1.06,5.54Z"/><polygon class="cls-1" points="394.03 226.37 385.64 226.37 385.64 220.41 409.64 220.41 409.64 226.37 401.11 226.37 401.11 251.76 394.03 251.76 394.03 226.37"/><path class="cls-1" d="m432.34,244.45c1.9.98,4.82,1.96,7.83,1.96,3.23,0,4.95-1.35,4.95-3.4s-1.48-3.06-5.24-4.4c-5.19-1.82-8.56-4.71-8.56-9.27,0-5.35,4.44-9.44,11.81-9.44,3.53,0,6.12.74,7.97,1.58l-1.58,5.71c-1.25-.6-3.47-1.48-6.53-1.48s-4.54,1.39-4.54,3.01c0,2.01,1.77,2.89,5.79,4.42,5.52,2.05,8.11,4.94,8.11,9.35,0,5.27-4.02,9.73-12.6,9.73-3.57,0-7.08-.93-8.84-1.9l1.43-5.87Z"/><polygon class="cls-1" points="464.2 220.41 464.2 232.46 475.82 232.46 475.82 220.41 482.87 220.41 482.87 251.76 475.82 251.76 475.82 238.65 464.2 238.65 464.2 251.76 457.12 251.76 457.12 220.41 464.2 220.41"/><path class="cls-1" d="m496.09,220.41v18.05c0,5.4,2.02,8.14,5.65,8.14s5.74-2.61,5.74-8.14v-18.05h7.05v17.58c0,9.67-4.87,14.28-13.02,14.28s-12.51-4.37-12.51-14.36v-17.5h7.1Z"/><path class="cls-1" d="m520.63,220.83c2.28-.38,5.66-.65,9.41-.65,4.64,0,7.87.7,10.1,2.47,1.84,1.49,2.88,3.67,2.88,6.54,0,4.01-2.83,6.75-5.51,7.73v.15c2.18.88,3.38,2.97,4.18,5.85.95,3.54,1.93,7.63,2.54,8.84h-7.24c-.5-.88-1.24-3.45-2.18-7.3-.83-3.91-2.16-4.97-5.04-5.02h-2.13v12.32h-7v-30.93Zm7,13.48h2.78c3.52,0,5.6-1.77,5.6-4.51,0-2.89-1.94-4.32-5.18-4.38-1.72,0-2.7.15-3.2.24v8.64Z"/><path class="cls-1" d="m554.91,220.41v18.05c0,5.4,2.04,8.14,5.65,8.14s5.76-2.61,5.76-8.14v-18.05h7.03v17.58c0,9.67-4.87,14.28-13.02,14.28s-12.5-4.37-12.5-14.36v-17.5h7.08Z"/><path class="cls-1" d="m585.35,243.71l-2.24,8.05h-7.31l9.55-31.35h9.26l9.69,31.35h-7.61l-2.4-8.05h-8.94Zm7.92-5.3l-1.95-6.64c-.55-1.86-1.12-4.18-1.58-6.05h-.09c-.46,1.86-.93,4.23-1.43,6.05l-1.85,6.64h6.9Z"/><path class="cls-1" d="m615.75,243.71l-2.24,8.05h-7.31l9.55-31.35h9.27l9.67,31.35h-7.6l-2.41-8.05h-8.93Zm7.91-5.3l-1.94-6.64c-.56-1.86-1.11-4.18-1.57-6.05h-.1c-.46,1.86-.93,4.23-1.44,6.05l-1.85,6.64h6.9Z"/><polygon class="cls-1" points="641.04 226.37 632.66 226.37 632.66 220.41 656.65 220.41 656.65 226.37 648.12 226.37 648.12 251.76 641.04 251.76 641.04 226.37"/><path class="cls-1" d="m119.38,77.61l-53.97,49.51c-3.88,4.67-13.99,4.15-13.34-2.34v-31.55c0-4.87,2.19-7.22,6.54-7.11l14.98,6.06c2.91,0,5.82-1.28,8.72-3.81l17.98-16.37c2.92-3.29,2.38-5.09-1.64-5.45l-64.01-19.48c-11.83-3.23-18.3,6.26-17.98,17.53v84.82c0,12.16,7.45,18.26,22.3,18.26h15.3c12.16,0,24.57-5.92,37.27-17.79l33.23-31.23c3.16-2.92,6.4-2.91,9.75.09l35.08,31.14c12.66,11.87,25.07,17.79,37.27,17.79h15.26c14.9,0,22.35-6.09,22.35-18.26V25.08c.29-11.26-4.18-23.58-17.99-17.52l-64.61,45.14c-3.05,2.32-6.86,4.44-1.82,9.46l17.33,16.1c4.28,4.36,7.21,1.72,10.12-.32l15-10.63c4.27-1.27,6.53,2.25,6.53,7.1v50.36c-.28,7.51-9.54,6.06-13.53,2.34l-55.33-49.51c-2.77-2.47-6.25-3.74-10.42-3.74s-7.55,1.28-10.08,3.83l-.27-.09Z"/><path class="cls-1" d="m356.76,155.44c-.63,8.13-5.84,12.22-15.63,12.22h-29.62c-10.47,0-15.67-4.68-15.67-13.92v-22.69c0-9.3,5.2-13.96,15.67-13.96h29.62c10.39,0,15.63,4.04,15.63,12.09v.13h-38.27c-4.65,0-6.97,1.75-6.97,5.24v15.65c0,3.49,2.32,5.24,6.97,5.24h38.27Z"/><path class="cls-1" d="m391.26,117.09h43.56v12.21h-38.33v26.14h38.33v12.22h-43.56c-6.97,0-10.47-3.5-10.47-10.47v-29.63c0-6.98,3.49-10.47,10.47-10.47"/><polygon class="cls-1" points="419.15 136.26 424.34 148.5 396.49 148.5 391.26 136.26 419.15 136.26"/><path class="cls-1" d="m498.93,146.73l15.67-24.4c2.33-3.5,5.8-5.24,10.44-5.24h13.96v50.57h-15.67v-33.12l-20.9,33.12h-6.99l-20.89-33.12v33.12h-15.7v-50.57h13.96c4.62,0,8.12,1.74,10.42,5.24l15.7,24.4Z"/><path class="cls-1" d="m573.51,117.09h43.54v12.21h-38.33v26.14h38.33v12.22h-43.54c-7,0-10.48-3.5-10.48-10.47v-29.63c0-6.98,3.48-10.47,10.48-10.47"/><polygon class="cls-1" points="601.36 136.26 606.6 148.5 578.73 148.5 573.51 136.26 601.36 136.26"/><path class="cls-1" d="m655,117.09c4.67,0,8.74,1.74,12.21,5.24l26.12,29.62v-34.86h15.7v50.57h-13.96c-4.62,0-8.68-1.75-12.18-5.24l-26.14-29.63v34.87h-15.67v-50.57h13.92Z"/><path class="cls-1" d="m753.99,125.54h0l15.64,3.45v38.67h-15.64v-42.12Zm-20.93-8.45h57.46v12.21h-57.46v-12.21Z"/><path class="cls-1" d="m359.8,77.62l-16.56-43.46h-16.55l-16.54,43.46-18.62-43.46h-18.62l22.76,53.79c1.37,4.14,5.24,6.23,11.59,6.23h13.22l14.48-37.27,12.42,31.04c1.36,4.14,5.52,6.23,12.42,6.23h12.4l24.83-60.02h-18.6l-18.63,43.46Z"/><path class="cls-1" d="m461.57,73.48h0c0,4.14-2.77,6.21-8.28,6.21h-24.81c-5.53-.04-8.28-2.1-8.28-6.21v-18.64c0-4.15,2.76-6.2,8.28-6.2h24.81c5.52,0,8.28,2.05,8.28,6.2v18.64Zm0-39.32h-41.38c-12.41,0-18.61,5.51-18.61,16.53v26.93c0,11.04,6.2,16.56,18.61,16.56h41.38c12.4,0,18.63-5.53,18.63-16.56v-26.93c0-11.02-6.23-16.53-18.63-16.53Z"/><path class="cls-1" d="m641.57,46.58v35.18c0,8.28,4.14,12.43,12.41,12.43h51.72v-14.49h-45.5v-8.29h30.27l-6.21-14.49h-24.06v-8.27h45.5v-14.48h-51.72c-8.27,0-12.41,4.13-12.41,12.41"/><path class="cls-1" d="m612.62,34.16h-60.04v41.37l-31.03-35.18c-4.15-4.13-8.97-6.19-14.48-6.19h-16.55v60.02h18.6v-41.4l31.05,35.18c4.12,4.14,8.96,6.23,14.48,6.23h16.56v-45.54h33.13c5.53,0,8.28,2.05,8.28,6.2v18.64c0,4.14-2.75,6.2-8.28,6.2h-24.4l6.2,14.51h26.48c12.42,0,18.6-5.53,18.6-16.56v-26.93c0-11.02-6.19-16.53-18.6-16.53"/><path class="cls-1" d="m740.95,63.02l29.02,31.24h20.55l-15.92-16.87c10.61-.74,15.92-6.23,15.92-16.44v-10.33c0-11.02-6.19-16.56-18.61-16.56h-55.85v60.04h18.61v-45.55h28.97c5.53,0,8.27,2.07,8.27,6.22v2.06c0,4.13-2.75,6.22-8.27,6.22l-22.69-.04Z"/></g></g></svg>