<svg width="18" height="24" viewBox="0 0 20 20" fill="none" xmlns="http://www.w3.org/2000/svg" style="width: 1.6rem!important;
    height: 1.7rem!important;">
<path fill-rule="evenodd" clip-rule="evenodd" d="M1.14481 1.24637C2.09095 0.235041 3.5785 0 5.47 0H13.03C14.9215 0 16.4091 0.235041 17.3552 1.24637C18.2847 2.23991 18.5 3.78645 18.5 5.79001V10.05C18.5 10.4642 18.1642 10.8 17.75 10.8C17.3358 10.8 17 10.4642 17 10.05V5.79001C17 3.76357 16.7453 2.7901 16.2598 2.27114C15.7909 1.76996 14.9185 1.5 13.03 1.5H5.47C3.5815 1.5 2.70906 1.76996 2.24019 2.27114C1.75468 2.7901 1.5 3.76357 1.5 5.79001V17.05C1.5 17.6546 1.58408 18.0885 1.70025 18.3733C1.81542 18.6557 1.93815 18.7404 1.99794 18.7662C2.05225 18.7896 2.17947 18.8186 2.43132 18.7099C2.69052 18.598 3.03163 18.3577 3.43124 17.9288C3.43701 17.9226 3.44289 17.9165 3.44887 17.9105L3.45198 17.9074C4.5893 16.7098 6.3818 16.8078 7.37075 18.131L8.38053 19.4807C8.62867 19.8124 8.56095 20.2824 8.22929 20.5305C7.89762 20.7787 7.4276 20.7109 7.17947 20.3793L6.16946 19.0293L6.16923 19.029C5.74043 18.4552 5.03886 18.4106 4.53577 18.9444L4.52113 18.9595L4.51989 18.9608C4.03723 19.4771 3.53513 19.8671 3.02589 20.087C2.50617 20.3114 1.93652 20.3729 1.40457 20.1438C0.878107 19.9171 0.525211 19.4643 0.311315 18.9398C0.0984195 18.4177 0 17.7754 0 17.05V5.79001C0 3.78645 0.21532 2.23991 1.14481 1.24637Z" fill="currentColor"/>
<path fill-rule="evenodd" clip-rule="evenodd" d="M4.5 5.75C4.5 5.33579 4.83579 5 5.25 5H13.25C13.6642 5 14 5.33579 14 5.75C14 6.16421 13.6642 6.5 13.25 6.5H5.25C4.83579 6.5 4.5 6.16421 4.5 5.75Z" fill="currentColor"/>
<path fill-rule="evenodd" clip-rule="evenodd" d="M5.5 9.75C5.5 9.33579 5.83579 9 6.25 9H12.25C12.6642 9 13 9.33579 13 9.75C13 10.1642 12.6642 10.5 12.25 10.5H6.25C5.83579 10.5 5.5 10.1642 5.5 9.75Z" fill="currentColor"/>
<path fill-rule="evenodd" clip-rule="evenodd" d="M16.3844 12.2067C17.0477 12.1386 17.6579 12.4365 18.2014 12.98C18.748 13.5265 19.0495 14.1381 18.9837 14.8029C18.9218 15.428 18.549 15.913 18.2014 16.2606L14.669 19.793C14.5225 19.9466 14.3421 20.0583 14.194 20.1323C14.0382 20.2103 13.8487 20.281 13.6581 20.3111L13.6456 20.3131L12.2971 20.5028C12.2968 20.5028 12.2975 20.5027 12.2971 20.5028C11.8556 20.5656 11.3997 20.4495 11.0707 20.1206C10.7418 19.7917 10.6256 19.3366 10.6885 18.8951C10.6885 18.8948 10.6884 18.8953 10.6885 18.8951L10.8801 17.5333C10.9107 17.3396 10.983 17.1513 11.0606 16.9979C11.1382 16.8446 11.2484 16.6723 11.3908 16.53C11.3908 16.53 11.3908 16.53 11.3908 16.53L14.9307 12.9899C15.2784 12.6423 15.7623 12.2706 16.3844 12.2067ZM16.5377 13.6989C16.4298 13.7099 16.2537 13.7883 15.9914 14.0506L12.4527 17.5893C12.4522 17.5899 12.4467 17.5962 12.4373 17.6098C12.4255 17.627 12.412 17.6495 12.3991 17.6751C12.3861 17.7008 12.3759 17.7249 12.369 17.7448C12.3647 17.7572 12.3627 17.7649 12.3619 17.7679L12.188 19.0033L13.4241 18.8294C13.4273 18.8286 13.4364 18.8263 13.4512 18.8212C13.4726 18.8139 13.4977 18.8035 13.5231 18.7907C13.5488 18.7779 13.5693 18.7655 13.5829 18.756C13.5861 18.7538 13.5884 18.7521 13.5901 18.7508C13.5936 18.7472 13.5972 18.7435 13.6008 18.7399L17.1408 15.2C17.4031 14.9376 17.4804 14.7625 17.491 14.6552C17.4977 14.5875 17.4942 14.394 17.1408 14.0406C16.7943 13.6941 16.6045 13.692 16.5377 13.6989Z" fill="currentColor"/>
<path fill-rule="evenodd" clip-rule="evenodd" d="M14.7484 13.3076C15.1475 13.1968 15.5609 13.4304 15.6718 13.8295C15.9014 14.6561 16.5434 15.298 17.3699 15.5276C17.769 15.6385 18.0027 16.0519 17.8918 16.451C17.7809 16.8501 17.3675 17.0838 16.9684 16.9729C15.635 16.6025 14.5969 15.5645 14.2265 14.231C14.1157 13.8319 14.3493 13.4185 14.7484 13.3076Z" fill="currentColor"/>
</svg>
