<svg width="16" height="4" viewBox="0 0 16 4" fill="none" xmlns="http://www.w3.org/2000/svg">
<path d="M8.00004 2.83329C8.46028 2.83329 8.83337 2.4602 8.83337 1.99996C8.83337 1.53972 8.46028 1.16663 8.00004 1.16663C7.5398 1.16663 7.16671 1.53972 7.16671 1.99996C7.16671 2.4602 7.5398 2.83329 8.00004 2.83329Z" stroke="#667085" stroke-width="1.67" stroke-linecap="round" stroke-linejoin="round"/>
<path d="M13.8334 2.83329C14.2936 2.83329 14.6667 2.4602 14.6667 1.99996C14.6667 1.53972 14.2936 1.16663 13.8334 1.16663C13.3731 1.16663 13 1.53972 13 1.99996C13 2.4602 13.3731 2.83329 13.8334 2.83329Z" stroke="#667085" stroke-width="1.67" stroke-linecap="round" stroke-linejoin="round"/>
<path d="M2.16671 2.83329C2.62694 2.83329 3.00004 2.4602 3.00004 1.99996C3.00004 1.53972 2.62694 1.16663 2.16671 1.16663C1.70647 1.16663 1.33337 1.53972 1.33337 1.99996C1.33337 2.4602 1.70647 2.83329 2.16671 2.83329Z" stroke="#667085" stroke-width="1.67" stroke-linecap="round" stroke-linejoin="round"/>
</svg>
