<svg xmlns="http://www.w3.org/2000/svg" shape-rendering="geometricPrecision" text-rendering="geometricPrecision" image-rendering="optimizeQuality" fill-rule="evenodd" clip-rule="evenodd" viewBox="0 0 419 511.67" height="25" width="24">
  <path d="M93 39.4h46.13C141.83 17.18 159.77 0 181.52 0c21.62 0 39.45 16.95 42.34 38.94l46.76.46c2.61 0 4.7 2.09 4.7 4.71v51.84c0 2.6-2.09 4.7-4.7 4.7H93.05c-2.55 0-4.71-2.1-4.71-4.7V44.11C88.3 41.49 90.4 39.4 93 39.4zm221.98 264.22c57.47 0 104.02 46.59 104.02 104.03 0 57.47-46.58 104.02-104.02 104.02-57.47 0-104.03-46.58-104.03-104.02 0-57.47 46.59-104.03 104.03-104.03zm47.31 116.7v-25.34c0-5.32-4.35-9.67-9.66-9.67h-27.7v-17.83c-.13-3.22-1.21-5.5-3.21-6.82-5.36-3.58-10.67 1.31-14.4 4.7l-36.75 36.15c-3.84 3.9-3.89 8.41 0 12.3l37.76 37.02c3.58 3.19 8.44 7.11 13.39 3.8 2-1.34 3.08-3.61 3.21-6.83v-17.82h27.7c5.27 0 9.66-4.35 9.66-9.66zM41.72 59.27h23.93v24.38H41.72c-4.76 0-9.11 1.96-12.24 5.1-3.14 3.13-5.1 7.48-5.1 12.24v315.53c0 4.75 1.96 9.1 5.1 12.24 3.16 3.15 7.5 5.11 12.24 5.11h142.62c1.68 8.44 4.18 16.6 7.37 24.38H41.72c-11.44 0-21.9-4.71-29.46-12.27C4.72 438.44 0 427.99 0 416.52V100.99c0-11.48 4.7-21.92 12.25-29.47 7.55-7.55 18-12.25 29.47-12.25zm297.56 217.37V100.99c0-4.74-1.97-9.09-5.12-12.24a17.17 17.17 0 0 0-12.24-5.1H298V59.27h23.92c11.44 0 21.85 4.71 29.42 12.26 7.61 7.56 12.32 18.02 12.32 29.46V283.6c-7.8-3.06-15.95-5.41-24.38-6.96zm-206.75-8.07c-7.13 0-12.92-5.79-12.92-12.92 0-7.14 5.79-12.93 12.92-12.93h142.82c7.14 0 12.93 5.79 12.93 12.93 0 7.13-5.79 12.92-12.93 12.92H132.53zM89.5 241.22c7.98 0 14.43 6.45 14.43 14.43 0 7.98-6.45 14.44-14.43 14.44-7.98 0-14.44-6.46-14.44-14.44 0-7.98 6.46-14.43 14.44-14.43zm0 78.62c7.98 0 14.43 6.46 14.43 14.44 0 7.97-6.45 14.43-14.43 14.43-7.98 0-14.44-6.46-14.44-14.43 0-7.98 6.46-14.44 14.44-14.44zm43.04 27.35c-7.13 0-12.93-5.79-12.93-12.92s5.8-12.93 12.93-12.93h80.96a133.654 133.654 0 0 0-17.27 25.85h-63.69zM89.5 162.6c7.98 0 14.43 6.46 14.43 14.44 0 7.98-6.45 14.44-14.43 14.44-7.98 0-14.44-6.46-14.44-14.44 0-7.98 6.46-14.44 14.44-14.44zm43.03 27.37c-7.13 0-12.92-5.8-12.92-12.93s5.79-12.93 12.92-12.93h142.82c7.14 0 12.93 5.8 12.93 12.93s-5.79 12.93-12.93 12.93H132.53zm48.5-169.82c12.3 0 22.26 9.98 22.26 22.27 0 12.3-9.96 22.26-22.26 22.26s-22.27-9.96-22.27-22.26c0-12.29 9.97-22.27 22.27-22.27z" fill="currentcolor"/>
</svg>
