<svg height="24" id="icon" viewBox="0 0 32 32" width="24" xmlns="http://www.w3.org/2000/svg">
    <defs>
      <style>
        .cls-1{fill:none;}
      </style>
    </defs>
    <title/>
    <circle cx="22" cy="24" fill="currentcolor" r="2"/>
    <!-- <path class="cls-1" d="M22,28a4,4,0,1,1,4-4A4.0039,4.0039,0,0,1,22,28Zm0-6a2,2,0,1,0,2,2A2.0027,2.0027,0,0,0,22,22Z" data-name="&lt;inner path&gt;" id="_inner_path_"/> -->
    <path fill="currentcolor" d="M29.7769,23.4785A8.64,8.64,0,0,0,22,18a8.64,8.64,0,0,0-7.7769,5.4785L14,24l.2231.5215A8.64,8.64,0,0,0,22,30a8.64,8.64,0,0,0,7.7769-5.4785L30,24ZM22,28a4,4,0,1,1,4-4A4.0045,4.0045,0,0,1,22,28Z"/>
    <path fill="currentcolor" d="M12,28H7V7h3v3H22V7h3v9h2V7a2,2,0,0,0-2-2H22V4a2,2,0,0,0-2-2H12a2,2,0,0,0-2,2V5H7A2,2,0,0,0,5,7V28a2,2,0,0,0,2,2h5ZM12,4h8V8H12Z"/>
    <!-- <rect class="cls-1" data-name="&lt;Transparent Rectangle&gt;" height="32" id="_Transparent_Rectangle_" width="32"/> -->
  </svg>
  